<?xml version="1.0" standalone="no"?>
<!DOCTYPE svg PUBLIC "-//W3C//DTD SVG 20010904//EN"
 "http://www.w3.org/TR/2001/REC-SVG-20010904/DTD/svg10.dtd">
<svg version="1.0" xmlns="http://www.w3.org/2000/svg"
 width="331.000000pt" height="331.000000pt" viewBox="0 0 331.000000 331.000000"
 preserveAspectRatio="xMidYMid meet">
<metadata>
Created by potrace 1.11, written by Peter Selinger 2001-2013
</metadata>
<g transform="translate(0.000000,331.000000) scale(0.100000,-0.100000)"
fill="#000000" stroke="none">
<path d="M1489 3306 c-2 -2 -33 -7 -69 -11 -188 -20 -460 -118 -636 -230 -397
-251 -663 -638 -756 -1100 -25 -127 -32 -389 -12 -526 95 -686 595 -1232 1269
-1389 129 -29 151 -32 345 -35 152 -3 206 0 300 17 195 34 413 114 558 205 29
18 55 33 58 33 5 0 114 79 124 90 3 3 19 16 35 29 17 12 53 44 80 71 332 318
515 738 517 1188 0 92 -10 250 -17 262 -2 3 -6 26 -10 50 -3 25 -8 53 -11 62
-3 9 -7 27 -9 39 -7 35 -56 179 -77 229 -54 122 -71 156 -119 232 -141 227
-342 427 -564 558 -188 110 -348 167 -605 215 -38 8 -395 17 -401 11z"/>
</g>
</svg>
